<svg xmlns="http://www.w3.org/2000/svg" viewBox="0 0 64 64" fill="none">
  <path
    d="M36.807 7.5c4.297 0 7.78 3.483 7.78 7.78v2.5c0 2.767 1.1 5.42 3.056 7.376l2.196 2.196a3 3 0 0 1-.904 4.855l-9.924 4.51-3.128 18.91a1.75 1.75 0 0 1-3.132.77L28.5 50.43l-4.251 5.966a1.75 1.75 0 0 1-3.132-.77l-3.128-18.91-9.924-4.51a3 3 0 0 1-.904-4.855l2.196-2.196a10.43 10.43 0 0 0 3.056-7.376v-2.5c0-4.297 3.483-7.78 7.78-7.78h16.614Z"
    fill="#D97706"
  />
  <circle cx="32" cy="14.5" r="8.5" fill="#FBBF24" stroke="#92400E" stroke-width="2" />
  <path d="M28 44.5 24.5 58" stroke="#7C2D12" stroke-width="3" stroke-linecap="round" />
</svg>
